:version 1.10
:name ASF
:units
  mass 1
  length 1
  angle deg
:documentation
  ASF file generated by Kaydara
:root
  axis xyz
  order  tx ty tz rx ry rz
  position 0 0 0
  orientation 0 0 0
:bonedata
  begin
    id 1
    name lfemurDummy
    direction 0.61522 -0.761478 0.204097
    length 5.68318
    axis 0 -0 0 xyz
  end
  begin
    id 2
    name lfemur
    direction 0.34202 -0.939693 -5.84747e-008
    length 16.9147
    axis 0 -0 20 xyz
    dof rx ry rz
    limits( -inf , inf )
( -inf , inf )
( -inf , inf )

  end
  begin
    id 3
    name ltibia
    direction 0.34202 -0.939693 1.20839e-009
    length 18.0532
    axis 0 -0 20 xyz
    dof rz ry rx
    limits( -inf , inf )
( -inf , inf )
( -inf , inf )

  end
  begin
    id 4
    name lfoot
    direction 0.0841971 -0.23133 0.969225
    length 5.23822
    axis -90 7.62852e-016 20 xyz
    dof ry rx rz
    limits( -inf , inf )
( -inf , inf )
( -inf , inf )

  end
  begin
    id 5
    name ltoes
    direction 0 0 0
    length 0
    axis 0 0 0 xyz
    dof rz ry rx
    limits( -inf , inf )
( -inf , inf )
( -inf , inf )

  end
  begin
    id 6
    name rfemurDummy
    direction -0.625247 -0.75382 0.202044
    length 5.74091
    axis 0 -0 0 xyz
  end
  begin
    id 7
    name rfemur
    direction -0.34202 -0.939693 -1.47013e-008
    length 16.4922
    axis 0 -0 -20 xyz
    dof rx ry rz
    limits( -inf , inf )
( -inf , inf )
( -inf , inf )

  end
  begin
    id 8
    name rtibia
    direction -0.34202 -0.939693 -7.74345e-010
    length 18.2421
    axis 0 -0 -20 xyz
    dof rz ry rx
    limits( -inf , inf )
( -inf , inf )
( -inf , inf )

  end
  begin
    id 9
    name rfoot
    direction -0.124331 -0.341598 0.931586
    length 5.45787
    axis -90 -7.62852e-016 -20 xyz
    dof ry rx rz
    limits( -inf , inf )
( -inf , inf )
( -inf , inf )

  end
  begin
    id 10
    name rtoes
    direction 0 0 0
    length 0
    axis 0 0 0 xyz
    dof rz ry rx
    limits( -inf , inf )
( -inf , inf )
( -inf , inf )

  end
  begin
    id 11
    name lowerbackDummy
    direction 0 0 0
    length 0
    axis 0 -0 0 xyz
  end
  begin
    id 12
    name lowerback
    direction -0.0218484 0.994884 -0.0986304
    length 4.45607
    axis 0 -0 0 xyz
    dof rx ry rz
    limits( -inf , inf )
( -inf , inf )
( -inf , inf )

  end
  begin
    id 13
    name upperback
    direction -0.00973057 0.999717 -0.0217111
    length 4.47449
    axis 0 -0 0 xyz
    dof rx ry rz
    limits( -inf , inf )
( -inf , inf )
( -inf , inf )

  end
  begin
    id 14
    name thorax
    direction -0.000928171 0.999699 0.0245198
    length 4.50973
    axis 0 -0 0 xyz
    dof rx ry rz
    limits( -inf , inf )
( -inf , inf )
( -inf , inf )

  end
  begin
    id 15
    name rclavicle
    direction -0.9009 0.425937 -0.0834055
    length 7.28587
    axis 0 -0 0 xyz
    dof rx ry rz
    limits( -inf , inf )
( -inf , inf )
( -inf , inf )

  end
  begin
    id 16
    name rhumerus
    direction -1 -2.23604e-007 -1.42637e-007
    length 13.5704
    axis 180 30 90 xyz
    dof rx ry rz
    limits( -inf , inf )
( -inf , inf )
( -inf , inf )

  end
  begin
    id 17
    name rradius
    direction -1 5.68281e-008 -4.4952e-007
    length 8.06782
    axis 180 30 90 xyz
    dof rz ry rx
    limits( -inf , inf )
( -inf , inf )
( -inf , inf )

  end
  begin
    id 18
    name rwrist
    direction -1 1.51393e-007 1.38143e-007
    length 4.03391
    axis -90 -90 0 xyz
    dof rz rx ry
    limits( -inf , inf )
( -inf , inf )
( -inf , inf )

  end
  begin
    id 19
    name rthumb
    direction 0 0 0
    length 0
    axis 0 0 0 xyz
    dof ry rx rz
    limits( -inf , inf )
( -inf , inf )
( -inf , inf )

  end
  begin
    id 20
    name rhand
    direction -1 -3.34077e-007 -5.59631e-007
    length 1.29744
    axis -90 -90 0 xyz
    dof ry rx rz
    limits( -inf , inf )
( -inf , inf )
( -inf , inf )

  end
  begin
    id 21
    name rfingers
    direction 0 0 0
    length 0
    axis 0 0 0 xyz
    dof rz ry rx
    limits( -inf , inf )
( -inf , inf )
( -inf , inf )

  end
  begin
    id 22
    name lclavicle
    direction 0.940017 0.332249 -0.0773232
    length 8.29589
    axis 0 -0 0 xyz
    dof rx ry rz
    limits( -inf , inf )
( -inf , inf )
( -inf , inf )

  end
  begin
    id 23
    name lhumerus
    direction 1 7.41158e-008 -1.44768e-008
    length 12.0042
    axis 180 -30 -90 xyz
    dof rx ry rz
    limits( -inf , inf )
( -inf , inf )
( -inf , inf )

  end
  begin
    id 24
    name lradius
    direction 1 -1.32972e-007 3.10821e-007
    length 8.1902
    axis 180 -30 -90 xyz
    dof rz ry rx
    limits( -inf , inf )
( -inf , inf )
( -inf , inf )

  end
  begin
    id 25
    name lwrist
    direction 1 3.08957e-007 4.01394e-007
    length 4.09509
    axis -90 90 0 xyz
    dof rz rx ry
    limits( -inf , inf )
( -inf , inf )
( -inf , inf )

  end
  begin
    id 26
    name lthumb
    direction 0 0 0
    length 0
    axis 0 0 0 xyz
    dof ry rx rz
    limits( -inf , inf )
( -inf , inf )
( -inf , inf )

  end
  begin
    id 27
    name lhand
    direction 1 -1.64125e-007 -6.99514e-007
    length 1.37229
    axis -90 90 0 xyz
    dof ry rx rz
    limits( -inf , inf )
( -inf , inf )
( -inf , inf )

  end
  begin
    id 28
    name lfingers
    direction 0 0 0
    length 0
    axis 0 0 0 xyz
    dof rz ry rx
    limits( -inf , inf )
( -inf , inf )
( -inf , inf )

  end
  begin
    id 29
    name lowerneck
    direction -0.030798 0.998024 0.0547665
    length 3.93918
    axis 0 -0 0 xyz
    dof rx ry rz
    limits( -inf , inf )
( -inf , inf )
( -inf , inf )

  end
  begin
    id 30
    name upperneck
    direction 0.0531588 0.996611 -0.0627736
    length 3.95491
    axis 0 -0 0 xyz
    dof rx ry rz
    limits( -inf , inf )
( -inf , inf )
( -inf , inf )

  end
  begin
    id 31
    name head
    direction 0 0 0
    length 0
    axis 0 0 0 xyz
    dof rx ry rz
    limits( -inf , inf )
( -inf , inf )
( -inf , inf )

  end
:hierarchy
  begin
    root lfemurDummy rfemurDummy lowerbackDummy
    lfemurDummy lfemur
    lfemur ltibia
    ltibia lfoot
    lfoot ltoes
    rfemurDummy rfemur
    rfemur rtibia
    rtibia rfoot
    rfoot rtoes
    lowerbackDummy lowerback
    lowerback upperback
    upperback thorax
    thorax rclavicle lclavicle lowerneck
    rclavicle rhumerus
    rhumerus rradius
    rradius rwrist
    rwrist rthumb rhand
    rhand rfingers
    lclavicle lhumerus
    lhumerus lradius
    lradius lwrist
    lwrist lthumb lhand
    lhand lfingers
    lowerneck upperneck
    upperneck head
  end

:SAMPLES-PER-SECOND 30
:FULLY-SPECIFIED
:DEGREES
19
root  8.77124456 39.91088867 5.999444601 -12.44599915 -62.66100311 22.45799255
lowerback  19.14089966 2.575930119 -3.315619946
upperback  6.017429829 2.486910105 -0.2580220103
thorax  -4.343420029 1.116729975 1.054970026
lowerneck  -4.035749912 11.06040001 0.8432070017
upperneck  -2.197949886 14.78660011 -11.75899982
head  1.032789946 7.334730148 -3.50541997
lclavicle  0 -9.442270133e-015 7.951389973e-016
lhumerus  3.221570015 2.100490093 70.6187973
lradius  2.787716976e-031 -2.167366627e-031 142.1360016
lwrist  -7.062250077e-031 1.765562519e-031 11.28250027
lhand  -1.496451383e-031 -27.76390076 20.11240005
lfingers  90 7.125020027 -90
lthumb  89.89689403 5.08795885 91.16245106
rclavicle  0 -9.442270133e-015 7.951389973e-016
rhumerus  -11.8373003 26.5522995 -79.09369659
rradius  -1.765722548e-031 3.057951589e-031 120.0029984
rwrist  7.062250077e-031 -0 -12.11190033
rhand  -7.920061211e-032 -33.2840004 9.303460121
rfingers  -90 -7.125020027 -90
rthumb  -92.93752616 -24.25625642 -97.11982154
rfemur  -28.69589996 19.62630081 -15.1473999
rtibia  -0 0 54.12210083
rfoot  -4.43447813e-032 -5.521039963 -0.9989579916
rtoes  5.373923086 19.29304026 -105.8922705
lfemur  -34.22589874 18.40209961 -11.81379986
ltibia  -0 0 68.26660156
lfoot  4.434291159e-032 5.495989799 4.191790104
ltoes  -4.250644065 -19.5611806 -102.515957
20
root  8.721644484 39.82511205 6.131422238 -13.30299377 -62.59500122 23.6289978
lowerback  18.96929932 2.466710091 -4.025279999
upperback  6.079179764 2.209569931 -0.441572994
thorax  -4.191840172 0.9766409993 1.330500007
lowerneck  -4.007609844 11.2954998 0.8633959889
upperneck  -2.104589939 15.11359978 -11.86489964
head  1.091879964 7.49503994 -3.526109934
lclavicle  0 -9.442270133e-015 7.951389973e-016
lhumerus  3.508899927 2.960690022 69.85900116
lradius  2.784005514e-031 -2.172131979e-031 142.0379944
lwrist  -7.062250077e-031 -0 11.61320019
lhand  -1.496451383e-031 -27.76390076 20.11240005
lfingers  90 7.125020027 -90
lthumb  89.89689403 5.08795885 91.16245106
rclavicle  0 -9.442270133e-015 7.951389973e-016
rhumerus  -12.66800022 27.09460068 -79.75849915
rradius  -1.63590156e-031 3.129324228e-031 117.598999
rwrist  7.062250077e-031 -0 -11.59459972
rhand  -7.920061211e-032 -33.2840004 9.303460121
rfingers  -90 -7.125020027 -90
rthumb  -92.93752616 -24.25625642 -97.11982154
rfemur  -28.60099983 20.42720032 -15.87080002
rtibia  -0 0 52.82450104
rfoot  -6.672559895e-032 -7.137060165 -3.068540096
rtoes  5.373923086 19.29304026 -105.8922705
lfemur  -35.09809875 18.31279945 -12.38409996
ltibia  -0 0 67.66010284
lfoot  4.425588649e-032 4.164020061 4.750790119
ltoes  -4.250644065 -19.5611806 -102.515957
21
root  8.642244714 39.72200108 6.263999864 -13.16799927 -62.41600037 23.69900513
lowerback  18.71899986 2.274410009 -4.361060143
upperback  6.084090233 1.912359953 -0.4673199952
thorax  -4.048260212 0.8288630247 1.566280007
lowerneck  -4.17456007 11.53960037 0.823333025
upperneck  -1.69588995 15.48859978 -11.83549976
head  1.272840023 7.661159992 -3.466639996
lclavicle  0 -9.442270133e-015 7.951389973e-016
lhumerus  3.697390079 3.719980001 69.19950104
lradius  2.774158672e-031 -2.184693961e-031 141.779007
lwrist  -7.062250077e-031 -1.765562519e-031 11.71479988
lhand  -1.496451383e-031 -27.76390076 20.11240005
lfingers  90 7.125020027 -90
lthumb  89.89689403 5.08795885 91.16245106
rclavicle  0 -9.442270133e-015 7.951389973e-016
rhumerus  -13.44810009 27.59149933 -80.30490112
rradius  -1.499630909e-031 3.196865836e-031 115.1309967
rwrist  7.062250077e-031 -0 -11.14340019
rhand  -7.920061211e-032 -33.2840004 9.303460121
rfingers  -90 -7.125020027 -90
rthumb  -92.93752616 -24.25625642 -97.11982154
rfemur  -28.32819939 21.33659935 -15.93089962
rtibia  -0 0 51.65430069
rfoot  -4.482057244e-032 -10.00430012 -3.867619991
rtoes  5.373923086 19.29304026 -105.8922705
lfemur  -35.91770172 17.99810028 -12.37950039
ltibia  -0 0 66.84069824
lfoot  4.420138965e-032 3.043040037 4.923460007
ltoes  -4.250644065 -19.5611806 -102.515957
22
root  8.546311086 39.51710979 6.395888892 -12.16299438 -62.14299774 22.86099243
lowerback  18.32309914 2.026439905 -4.333869934
upperback  6.057459831 1.626909971 -0.3808479905
thorax  -3.854330063 0.688477993 1.713660002
lowerneck  -4.68696022 11.76430035 0.7264159918
upperneck  -0.9742590189 15.87699986 -11.70199966
head  1.60205996 7.809919834 -3.330319881
lclavicle  0 -9.442270133e-015 7.951389973e-016
lhumerus  3.90493989 4.242000103 68.67099762
lradius  2.759915545e-031 -2.202659806e-031 141.4069977
lwrist  -7.062250077e-031 -3.531125038e-031 11.60690022
lhand  -1.496451383e-031 -27.76390076 20.11240005
lfingers  90 7.125020027 -90
lthumb  89.89689403 5.08795885 91.16245106
rclavicle  0 -9.442270133e-015 7.951389973e-016
rhumerus  -14.44470024 27.92079926 -80.76650238
rradius  -1.372852885e-031 3.253324299e-031 112.8789978
rwrist  0 -0 -10.68859959
rhand  -7.920061211e-032 -33.2840004 9.303460121
rfingers  -90 -7.125020027 -90
rthumb  -92.93752616 -24.25625642 -97.11982154
rfemur  -27.41209984 21.79360008 -15.37230015
rtibia  -0 0 50.91080093
rfoot  -4.547805681e-032 -13.93789959 -3.273390055
rtoes  5.373923086 19.29304026 -105.8922705
lfemur  -36.93119812 17.62220001 -11.8913002
ltibia  -0 0 66.00319672
lfoot  4.416859258e-032 2.095240116 4.538720131
ltoes  -4.250644065 -19.5611806 -102.515957
